<?xml version="1.0" encoding="UTF-8"?>
<svg width="384px" height="86px" viewBox="0 0 384 86" version="1.1" xmlns="http://www.w3.org/2000/svg" xmlns:xlink="http://www.w3.org/1999/xlink">
    <!-- Generator: Sketch 63.1 (92452) - https://sketch.com -->
    <title>Logo/IconWithText/FullColorWhiteText</title>
    <desc>Created with Sketch.</desc>
    <defs>
        <linearGradient x1="31.3465825%" y1="69.274771%" x2="66.1820189%" y2="35.4780092%" id="linearGradient-1">
            <stop stop-color="#C6DE89" offset="11.33%"></stop>
            <stop stop-color="#92BC71" offset="31.34%"></stop>
            <stop stop-color="#539453" offset="62.78%"></stop>
            <stop stop-color="#297E43" offset="86.66%"></stop>
            <stop stop-color="#11773D" offset="100%"></stop>
        </linearGradient>
        <linearGradient x1="0.063015873%" y1="50.039951%" x2="99.98%" y2="50.039951%" id="linearGradient-2">
            <stop stop-color="#11773D" offset="22.66%"></stop>
            <stop stop-color="#227C41" offset="33.48%"></stop>
            <stop stop-color="#428A4C" offset="50.04%"></stop>
            <stop stop-color="#6EA460" offset="70.27%"></stop>
            <stop stop-color="#ADCD7D" offset="93.21%"></stop>
            <stop stop-color="#C6DE89" offset="100%"></stop>
        </linearGradient>
        <linearGradient x1="49.9120094%" y1="76.9273243%" x2="50.012919%" y2="20.2066893%" id="linearGradient-3">
            <stop stop-color="#11773D" offset="0%"></stop>
            <stop stop-color="#C6DE89" offset="100%"></stop>
        </linearGradient>
    </defs>
    <g id="Design-System-Toolkit" stroke="none" stroke-width="1" fill="none" fill-rule="evenodd">
        <g id="Components-Copy" transform="translate(-681.000000, -517.000000)">
            <g id="Logo/IconWithText/FullColorWhiteText" transform="translate(672.000000, 512.000000)">
                <g>
                    <rect id="Rectangle-Copy-2" fill="#FFFFFF" opacity="0" x="0" y="0" width="416" height="96"></rect>
                    <g id="Color-Icon,-Black-Text---Panopto-Logo-2015-01" transform="translate(9.000000, 5.000000)">
                        <g id="Group">
                            <path d="M7.04310345,65.9086207 L30.9155172,79.6982759 L37.8844828,83.7017241 C39.9603448,84.887931 42.3327586,85.5551724 44.8534483,85.5551724 C47.3741379,85.5551724 49.8206897,84.887931 51.8224138,83.7017241 L70.5793103,72.8775862 C74.7310345,70.4310345 77.5482759,65.9086207 77.5482759,60.7931034 L77.5482759,52.4155172 L61.3862069,42.4068966 L30.9155172,60.0517241 L20.8327586,65.9086207 C18.8310345,67.0206897 16.4586207,67.762069 13.937931,67.762069 C11.4172414,67.687931 9.04482759,67.0948276 7.04310345,65.9086207 L7.04310345,65.9086207 Z" id="Path" fill="url(#linearGradient-1)"></path>
                            <path d="M77.5482759,24.8362069 L77.5482759,33.0655172 L77.5482759,60.4965517 C77.5482759,55.3068966 74.7310345,50.7844828 70.5793103,48.337931 L60.8672414,42.7034483 L30.8413793,25.4293103 L30.8413793,6.00517241 L38.5517241,1.55689655 C40.5534483,0.518965517 42.7034483,0 45.0017241,0 C47.5224138,0 49.9689655,0.667241379 51.9706897,1.85344828 L70.2827586,12.4551724 C74.6568966,14.9017241 77.5482759,19.4982759 77.5482759,24.8362069 L77.5482759,24.8362069 Z" id="Path" fill="url(#linearGradient-2)"></path>
                            <path d="M7.04310345,65.9086207 C2.81724138,63.5362069 0,59.0137931 0,53.8241379 L0,31.8793103 C0,26.9862069 2.52068966,22.6862069 6.30172414,20.1655172 L14.0862069,15.7172414 L37.0689655,2.44655172 C33.362069,4.96724138 30.8413793,9.26724138 30.8413793,14.1603448 L30.8413793,60.1258621 L20.7586207,65.9827586 C18.7568966,67.1689655 16.3844828,67.8362069 13.8637931,67.8362069 C11.4172414,67.687931 9.04482759,67.0948276 7.04310345,65.9086207 L7.04310345,65.9086207 Z" id="Path" fill="url(#linearGradient-3)"></path>
                        </g>
                        <g id="Group" transform="translate(102.310345, 15.568966)" fill="#FFFFFF">
                            <path d="M220.412069,11.3431034 L204.768966,11.3431034 C204.398276,11.3431034 204.027586,11.0465517 204.027586,10.6017241 L204.027586,1.33448276 L197.725862,2.44655172 L197.725862,37.0689655 C197.725862,41.2206897 198.096552,46.3362069 200.691379,49.7465517 C203.434483,53.2310345 207.808621,53.9724138 211.960345,53.9724138 C215.444828,53.9724138 218.558621,53.3051724 221.82069,51.9706897 L220.634483,46.9293103 C219.077586,47.5224138 217.52069,48.1155172 215.815517,48.412069 C213.665517,48.7086207 210.922414,48.7827586 208.92069,48.0413793 C204.398276,46.5586207 203.953448,41.0724138 203.953448,36.9948276 L203.953448,17.0517241 C203.953448,16.6810345 204.25,16.3103448 204.694828,16.3103448 L220.337931,16.3103448 L220.337931,11.3431034 L220.412069,11.3431034 Z" id="Path"></path>
                            <path d="M145.532759,32.1758621 C145.532759,36.4017241 144.717241,40.7758621 142.122414,44.1862069 C139.75,47.3 136.487931,48.7086207 132.632759,48.7086207 C128.777586,48.7086207 125.515517,47.2258621 123.143103,44.1862069 C120.844828,41.2206897 119.732759,37.2172414 119.732759,32.1758621 C119.732759,27.1344828 120.844828,23.1310345 123.143103,20.1655172 C125.515517,17.0517241 128.777586,15.6431034 132.632759,15.6431034 C136.487931,15.6431034 139.75,17.1258621 142.122414,20.1655172 C144.717241,23.5758621 145.532759,27.95 145.532759,32.1758621 L145.532759,32.1758621 Z M151.760345,36.9206897 C152.872414,29.8034483 151.537931,21.6482759 146.644828,16.2362069 C143.012069,12.2327586 138.044828,10.2310345 132.632759,10.2310345 C127.22069,10.2310345 122.253448,12.1586207 118.62069,16.2362069 C114.691379,20.5362069 113.134483,26.3931034 113.134483,32.1758621 C113.134483,37.9586207 114.691379,43.7413793 118.62069,48.1155172 C122.253448,52.1931034 127.22069,54.1206897 132.632759,54.1206897 C138.044828,54.1206897 143.012069,52.1931034 146.644828,48.1155172 C149.462069,45.0017241 151.093103,40.9982759 151.760345,36.9206897 L151.760345,36.9206897 Z" id="Shape"></path>
                            <path d="M53.4534483,10.2310345 C49.8948276,10.2310345 45.15,10.6758621 41.7396552,11.862069 L42.4810345,16.8293103 C42.7775862,16.7551724 43.1482759,16.6068966 43.5189655,16.5327586 C44.2603448,16.3844828 45.0758621,16.162069 46.0396552,16.0137931 C47.9672414,15.6431034 50.2655172,15.4948276 52.8603448,15.4948276 C55.3810345,15.4948276 57.7534483,15.9396552 59.8293103,17.4965517 C61.3862069,18.7568966 62.4241379,20.5362069 62.8689655,22.537931 C63.0913793,23.65 63.5362069,27.7275862 63.3137931,28.7655172 C63.2396552,29.1362069 62.8689655,29.3586207 62.4241379,29.2844828 C60.4224138,28.7655172 57.9017241,28.3948276 55.9,28.2465517 C53.3051724,28.0982759 50.487931,28.3948276 47.9672414,28.9137931 C45.2241379,29.5068966 42.3327586,30.7672414 40.3310345,32.8431034 C38.1810345,35.0672414 37.3655172,37.7362069 37.3655172,40.7758621 C37.3655172,44.7051724 38.4775862,48.4862069 41.8137931,50.8586207 C45.0758621,53.2310345 49.5241379,53.8241379 53.3793103,53.8241379 C56.8637931,53.8241379 60.2741379,53.5275862 63.7586207,53.0827586 C65.6862069,52.8603448 67.6137931,52.5637931 69.5413793,52.2672414 L69.5413793,26.0224138 C69.5413793,22.0189655 68.8741379,17.7189655 66.1310345,14.6051724 C64.9448276,13.1965517 63.3137931,12.1586207 61.237931,11.4172414 C58.7172414,10.5275862 55.9741379,10.2310345 53.4534483,10.2310345 L53.4534483,10.2310345 Z M54.1206897,48.8568966 C51.6,48.8568966 48.7827586,48.4862069 46.5586207,47.1517241 C44.5568966,45.9655172 43.5931034,43.8155172 43.5931034,40.7758621 C43.5931034,37.8103448 45.0758621,35.6603448 47.7448276,34.4 C49.5982759,33.5103448 51.4517241,33.2137931 53.4534483,33.1396552 C55.8258621,32.9913793 60.5706897,33.0655172 62.7206897,34.1034483 C63.0172414,34.1775862 63.1655172,34.4741379 63.1655172,34.7706897 L63.1655172,47.5965517 C63.1655172,47.8931034 62.9431034,48.1896552 62.6465517,48.2637931 C60.1258621,48.8568966 56.7896552,48.8568966 54.1206897,48.8568966 L54.1206897,48.8568966 Z" id="Shape"></path>
                            <path d="M193.351724,32.25 C193.351724,26.4672414 191.794828,20.5362069 187.643103,16.2362069 C183.639655,12.0844828 178.153448,10.3793103 172.444828,10.3793103 C166.884483,10.3793103 162.213793,11.1948276 156.875862,12.4551724 L156.875862,68.2810345 L163.177586,68.2810345 L163.177586,51.8224138 C163.177586,51.3034483 163.77069,50.9327586 164.289655,51.2293103 C167.181034,53.0827586 171.332759,53.9724138 174.743103,53.9724138 C180.155172,53.9724138 184.974138,52.1189655 188.532759,47.8931034 C192.091379,43.5931034 193.351724,37.7362069 193.351724,32.25 L193.351724,32.25 Z M185.789655,25.3551724 C186.456897,27.3568966 186.753448,29.6551724 186.753448,32.25 C186.753448,35.2155172 186.382759,38.6258621 185.122414,41.3689655 C182.972414,46.262069 178.894828,48.6344828 173.705172,48.6344828 C170.22069,48.6344828 166.143103,47.3741379 163.474138,45.2241379 C163.251724,45.0758621 163.177586,44.8534483 163.177586,44.6310345 L163.177586,17.4224138 C163.177586,17.1258621 163.4,16.8293103 163.696552,16.7551724 C166.439655,16.0137931 169.627586,15.8655172 172.444828,15.8655172 C178.672414,15.8655172 183.787931,19.1275862 185.789655,25.3551724 L185.789655,25.3551724 Z" id="Shape"></path>
                            <path d="M257.332759,32.1758621 C257.332759,36.4017241 256.517241,40.7758621 253.922414,44.1862069 C251.55,47.3 248.362069,48.7086207 244.432759,48.7086207 C240.577586,48.7086207 237.315517,47.2258621 234.943103,44.1862069 C232.644828,41.2206897 231.532759,37.2172414 231.532759,32.1758621 C231.532759,27.1344828 232.644828,23.1310345 234.943103,20.1655172 C237.315517,17.0517241 240.577586,15.6431034 244.432759,15.6431034 C248.287931,15.6431034 251.55,17.1258621 253.922414,20.1655172 C256.517241,23.5758621 257.332759,27.95 257.332759,32.1758621 L257.332759,32.1758621 Z M263.560345,36.9206897 C264.672414,29.8034483 263.337931,21.6482759 258.444828,16.2362069 C254.812069,12.2327586 249.844828,10.2310345 244.432759,10.2310345 C239.02069,10.2310345 234.053448,12.1586207 230.42069,16.2362069 C226.491379,20.5362069 224.934483,26.3931034 224.934483,32.1758621 C224.934483,37.9586207 226.491379,43.7413793 230.42069,48.1155172 C234.053448,52.1931034 239.094828,54.1206897 244.432759,54.1206897 C249.844828,54.1206897 254.812069,52.1931034 258.444828,48.1155172 C261.262069,45.0017241 262.893103,40.9982759 263.560345,36.9206897 L263.560345,36.9206897 Z" id="Shape"></path>
                            <path d="M10.5275862,5.63448276 C11.787931,5.56034483 13.1965517,5.56034483 14.7534483,5.56034483 C16.6810345,5.56034483 18.6086207,5.70862069 20.5362069,6.00517241 C22.2413793,6.30172414 23.9465517,6.82068966 25.4293103,7.71034483 C26.837931,8.52586207 28.0241379,9.71206897 28.9137931,11.1206897 C29.8775862,12.7517241 30.1741379,14.6793103 30.1741379,16.5327586 C30.1741379,19.4241379 29.5068966,22.0189655 27.4310345,24.0948276 C26.1706897,25.3551724 24.6137931,26.0965517 22.9827586,26.6896552 C20.9810345,27.3568966 18.8310345,27.5793103 16.7551724,27.8017241 C14.7534483,27.95 12.6775862,27.95 10.6758621,27.95 C9.41551724,27.95 8.15517241,27.95 6.89482759,27.95 L6.89482759,5.85689655 C8.08103448,5.78275862 9.26724138,5.70862069 10.5275862,5.63448276 L10.5275862,5.63448276 Z M23.9465517,1.26034483 C19.6465517,0.222413793 15.1982759,0.074137931 10.75,0.296551724 C7.33965517,0.444827586 3.85517241,0.667241379 0.518965517,1.40862069 L0.518965517,53.0086207 L6.82068966,53.0086207 L6.82068966,33.2137931 C10.6758621,33.2137931 14.7534483,33.362069 18.6086207,32.9913793 C23.7982759,32.5465517 29.6551724,31.212069 33.362069,27.2086207 C36.0310345,24.2431034 36.9206897,20.6103448 36.9206897,16.7551724 C36.9206897,12.8258621 35.8827586,9.26724138 33.4362069,6.52413793 C30.9155172,3.70689655 27.4310345,2.15 23.9465517,1.26034483 L23.9465517,1.26034483 Z" id="Shape"></path>
                            <path d="M74.8793103,12.3810345 L74.8793103,52.9344828 L81.1810345,52.9344828 L81.1810345,17.3482759 C81.1810345,16.9775862 81.4034483,16.6810345 81.7741379,16.6810345 C84.5913793,16.087931 87.7051724,15.8655172 90.5224138,15.8655172 C93.9327586,15.8655172 97.4172414,16.5327586 99.5672414,19.4982759 C101.198276,21.7224138 101.643103,24.8362069 101.865517,27.5051724 C101.939655,28.6172414 102.013793,29.8775862 102.013793,31.212069 L102.013793,53.0086207 L108.315517,53.0086207 L108.315517,29.5068966 C108.315517,28.0241379 108.241379,26.6896552 108.093103,25.3551724 C107.722414,21.8706897 106.981034,18.4603448 104.756897,15.6431034 C101.494828,11.4913793 96.3793103,10.3793103 91.337931,10.3793103 C85.6293103,10.3793103 80.4396552,11.0465517 74.8793103,12.3810345 L74.8793103,12.3810345 Z" id="Path"></path>
                        </g>
                        <path d="M371.428183,33.1172724 L371.428183,25.9172724 L368.968183,25.9172724 L368.968183,25.0292724 L374.956183,25.0292724 L374.956183,25.9172724 L372.484183,25.9172724 L372.484183,33.1172724 L371.428183,33.1172724 Z M382.876183,33.1172724 L382.672183,29.5652724 C382.612183,28.4372724 382.540183,27.0812724 382.552183,26.0732724 L382.516183,26.0732724 C382.240183,27.0212724 381.904183,28.0412724 381.496183,29.1452724 L380.068183,33.0692724 L379.276183,33.0692724 L377.968183,29.2172724 C377.584183,28.0772724 377.260183,27.0332724 377.032183,26.0732724 L377.008183,26.0732724 C376.984183,27.0812724 376.924183,28.4372724 376.852183,29.6492724 L376.636183,33.1172724 L375.640183,33.1172724 L376.204183,25.0292724 L377.536183,25.0292724 L378.916183,28.9412724 C379.252183,29.9372724 379.528183,30.8252724 379.732183,31.6652724 L379.768183,31.6652724 C379.972183,30.8492724 380.260183,29.9612724 380.620183,28.9412724 L382.060183,25.0292724 L383.392183,25.0292724 L383.896183,33.1172724 L382.876183,33.1172724 Z" id="TM" fill="#FFFFFF"></path>
                    </g>
                </g>
            </g>
        </g>
    </g>
</svg>